# xmcd
#
# Track frame offsets: 
#        150
#        20115
#        42349
#        75438
#        99123
#        117705
#        149158
#        169085
#        201062
#        230650
#        253721
#        271699
#
# Disc length: 3908 seconds
#
# Revision: 0
# Processed by: cddbd v1.4PL0 Copyright (c) Steve Scherf et al.
# Submitted via: ExactAudioCopy v0.95a1
#
DISCID=a60f420c
DTITLE=Porcupine Tree - XM ReTracked
DYEAR=1900
DGENRE=Polka
TTITLE0=Blackest Eyes
TTITLE1=Sound of Muzak
TTITLE2=Gravity Eyelids
TTITLE3=Wedding Nails
TTITLE4=Heartattack In A Layby
TTITLE5=Even Less
TTITLE6=Slave Called Shiver
TTITLE7=Strip The Soul
TTITLE8=Tinto brass
TTITLE9=Pure Narcotic
TTITLE10=The Sound Of Muzak
TTITLE11=Prodigal
EXTD=021112 Electric Set - full band. B.cast on 'XM Live'.\n020727 Acou
EXTD=stic set - SW and Wes. B.cast on 'XM Cafe'.
EXTT0=
EXTT1=
EXTT2=
EXTT3=
EXTT4=
EXTT5=
EXTT6=
EXTT7=
EXTT8=
EXTT9=
EXTT10=
EXTT11=
PLAYORDER=
